<?xml version="1.0" encoding="UTF-8" standalone="no"?>
<svg
   width="213"
   height="41"
   viewBox="0 0 213 41"
   fill="none"
   version="1.1"
   id="svg74"
   sodipodi:docname="app-logo.svg"
   inkscape:version="1.2.1 (9c6d41e, 2022-07-14)"
   xmlns:inkscape="http://www.inkscape.org/namespaces/inkscape"
   xmlns:sodipodi="http://sodipodi.sourceforge.net/DTD/sodipodi-0.dtd"
   xmlns="http://www.w3.org/2000/svg"
   xmlns:svg="http://www.w3.org/2000/svg">
  <defs
     id="defs78" />
  <sodipodi:namedview
     id="namedview76"
     pagecolor="#ffffff"
     bordercolor="#000000"
     borderopacity="0.25"
     inkscape:showpageshadow="2"
     inkscape:pageopacity="0.0"
     inkscape:pagecheckerboard="0"
     inkscape:deskcolor="#d1d1d1"
     showgrid="false"
     inkscape:zoom="5.6948357"
     inkscape:cx="107.02679"
     inkscape:cy="20.632729"
     inkscape:window-width="1724"
     inkscape:window-height="1027"
     inkscape:window-x="196"
     inkscape:window-y="25"
     inkscape:window-maximized="0"
     inkscape:current-layer="svg74"
     showguides="false" />
  <g
     id="text532"
     style="font-weight:bold;font-size:40px;-inkscape-font-specification:'sans-serif Bold';fill:#ffcc00" />
  <g
     aria-label="bet"
     transform="matrix(1.005424,0,0,0.99460527,2,0)"
     id="text547"
     style="font-size:28.8409px;-inkscape-font-specification:sans-serif;fill:#ffcc00;stroke-width:0.721021">
    <path
       id="path553"
       style="font-weight:bold;-inkscape-font-specification:'sans-serif Bold';fill:#ffcc00"
       d="m 65.22616,29.756669 q -0.816783,0.211237 -1.732143,0.323896 -0.915361,0.126743 -2.239113,0.126743 -2.957319,0 -4.407814,-1.19701 -1.436412,-1.19701 -1.436412,-4.097999 v -7.393298 h -2.084205 v -3.436122 h 2.084205 V 9.5624054 h 5.06969 v 4.5204736 h 4.745792 v 3.436122 h -4.745792 v 5.604824 q 0,0.830866 0.01408,1.450494 0.01408,0.619629 0.22532,1.112516 0.197154,0.492886 0.690041,0.788618 0.506969,0.281649 1.464577,0.281649 0.394309,0 1.02802,-0.168989 0.647794,-0.16899 0.901278,-0.309815 h 0.422474 z M 51.537997,22.92667 H 39.934041 q 0.112659,1.858886 1.408247,2.844659 1.309669,0.985773 3.844514,0.985773 1.605402,0 3.112226,-0.577381 1.506825,-0.577381 2.379938,-1.239257 h 0.563299 v 4.069834 q -1.718062,0.690041 -3.238969,0.999855 -1.520906,0.309814 -3.36571,0.309814 -4.759875,0 -7.29472,-2.140535 -2.534845,-2.140536 -2.534845,-6.09771 0,-3.914927 2.39402,-6.196287 2.408103,-2.295443 6.590597,-2.295443 3.858597,0 5.801978,1.957464 1.943381,1.94338 1.943381,5.604823 z m -5.041525,-2.971401 q -0.04225,-1.591319 -0.788618,-2.39402 -0.746371,-0.802701 -2.323608,-0.802701 -1.464577,0 -2.408103,0.760453 -0.943525,0.760454 -1.056185,2.436268 z m -14.19513,1.816639 q 0,3.731854 -2.070123,6.083627 -2.056041,2.351773 -5.140102,2.351773 -1.323752,0 -2.323608,-0.28165 -0.999855,-0.281649 -1.901133,-0.816783 l -0.211237,0.788618 H 15.796686 V 7.9851686 h 5.06969 v 7.7453594 q 1.168845,-0.929443 2.379937,-1.506825 1.225175,-0.577381 2.816494,-0.577381 2.999567,0 4.619051,2.1687 1.619484,2.154619 1.619484,5.956886 z m -5.224597,0.09858 q 0,-2.112371 -0.718206,-3.253051 -0.718206,-1.14068 -2.563009,-1.14068 -0.718206,0 -1.47866,0.22532 -0.760453,0.211237 -1.450494,0.619628 v 7.942514 q 0.549216,0.197154 1.042103,0.267567 0.492886,0.07041 1.182927,0.07041 2.013793,0 2.999566,-1.182927 0.985773,-1.182928 0.985773,-3.548783 z M 200.24288,40.276581 V 26.054055 h -6.46692 v 14.222526 h -8.73065 V 3.4413853 c 3.18075,-1.9085863 7.65349,-2.88635908 11.9661,-2.88635908 4.31261,0 8.73065,0.98204588 11.91139,2.88635908 V 40.276581 Z m 0,-32.9112872 c -0.91603,-0.4355095 -2.04888,-0.6532642 -3.23545,-0.6532642 -1.18656,0 -2.31842,0.2177547 -3.23545,0.6532642 V 19.84154 h 6.46692 V 7.3652938 Z M 169.46781,26.054055 h -2.31843 v 14.222627 h -8.78535 V 1.0460733 h 11.10378 c 5.28433,0 9.27171,1.0887937 12.39775,3.3218806 V 22.732234 c -3.07134,2.18177 -7.11739,3.321821 -12.39775,3.321821 z m 3.66711,-18.2532116 c -0.80762,-0.5977748 -1.88876,-0.871039 -3.72182,-0.871039 h -2.37312 V 20.170313 h 2.37312 c 1.77836,0 2.85552,-0.273274 3.72182,-0.815499 z M 141.9252,40.76763 c -4.58314,0 -9.00118,-0.981997 -12.50716,-2.99737 V 3.4968948 c 3.45128,-1.9598227 7.87329,-2.94186858 12.50716,-2.94186858 4.63287,0 8.94548,0.92653638 12.39676,2.94186858 V 37.77026 c -3.39658,2.015373 -7.86932,2.941871 -12.39676,2.99737 z m 3.72082,-33.0735626 c -1.02246,-0.4355094 -2.26373,-0.6532742 -3.77155,-0.6532742 -1.50782,0 -2.69538,0.2177648 -3.72181,0.6532742 V 33.577341 c 1.02245,0.491049 2.26472,0.708824 3.72181,0.708824 1.4571,0 2.69439,-0.217775 3.77155,-0.708824 z M 113.51927,40.767731 c -4.25691,0 -8.73064,-0.815499 -12.23663,-2.779595 V 3.3347099 c 3.45128,-1.9085863 7.92402,-2.77961934 12.23663,-2.77961934 4.31261,0 8.67992,0.81552354 12.12722,2.77961934 V 16.630718 h -8.67992 V 7.5831189 c -1.02245,-0.4355195 -2.26471,-0.5977648 -3.502,-0.5977648 -1.23729,0 -2.37412,0.1622453 -3.45128,0.5977648 V 33.739717 c 1.02245,0.435449 2.20902,0.597724 3.45128,0.597724 1.24226,0 2.42485,-0.162275 3.502,-0.597724 V 24.69633 h 8.67992 v 13.296029 c -3.39657,1.908596 -7.86931,2.724095 -12.12722,2.779595 z M 79.020095,29.635073 v -4.360121 l 6.108567,-2.345655 -6.108567,-2.345553 v -4.360222 l 11.906619,4.480068 h 0.02825 v 4.479968 h -0.02825 L 79.020095,29.640804 Z M 73.905139,10.05424 66.90451,32.774007 h 4.155162 L 78.060301,10.05424 Z M 9.9570927,20.777891 v -4.360222 l -11.9235993,4.480069 h -0.022582 v 4.474237 h 0.022582 L 9.9570927,29.852044 V 25.486191 L 3.8428464,23.123445 9.9570927,20.77216 Z" />
  </g>
  <g
     id="text573"
     style="font-weight:bold;font-size:40px;-inkscape-font-specification:'sans-serif Bold';fill:#ffcc00" />
</svg>
